<mxfile host="app.diagrams.net" modified="2023-09-14T07:43:34.592Z" agent="Mozilla/5.0 (X11; Linux x86_64) AppleWebKit/537.36 (KHTML, like Gecko) Chrome/112.0.0.0 Safari/537.36" etag="ByImmPambNprtR85VFbs" version="21.1.7" type="github">
  <diagram name="第 1 页" id="1baOzyDDZ39hIrgbBFO5">
    <mxGraphModel dx="1195" dy="607" grid="1" gridSize="10" guides="1" tooltips="1" connect="1" arrows="1" fold="1" page="1" pageScale="1" pageWidth="827" pageHeight="1169" math="0" shadow="0">
      <root>
        <mxCell id="0" />
        <mxCell id="1" parent="0" />
        <mxCell id="8ZU-AFX73NO8LHNlwmNf-20" value="" style="edgeStyle=orthogonalEdgeStyle;rounded=0;orthogonalLoop=1;jettySize=auto;html=1;" edge="1" parent="1" source="8ZU-AFX73NO8LHNlwmNf-4" target="8ZU-AFX73NO8LHNlwmNf-14">
          <mxGeometry relative="1" as="geometry" />
        </mxCell>
        <mxCell id="8ZU-AFX73NO8LHNlwmNf-4" value="bc提交" style="rounded=0;whiteSpace=wrap;html=1;" vertex="1" parent="1">
          <mxGeometry x="110" y="70" width="80" height="30" as="geometry" />
        </mxCell>
        <mxCell id="8ZU-AFX73NO8LHNlwmNf-24" style="edgeStyle=orthogonalEdgeStyle;rounded=0;orthogonalLoop=1;jettySize=auto;html=1;exitX=0.5;exitY=1;exitDx=0;exitDy=0;entryX=0.5;entryY=0;entryDx=0;entryDy=0;" edge="1" parent="1" source="8ZU-AFX73NO8LHNlwmNf-8" target="8ZU-AFX73NO8LHNlwmNf-9">
          <mxGeometry relative="1" as="geometry" />
        </mxCell>
        <mxCell id="8ZU-AFX73NO8LHNlwmNf-8" value="创建集群证书" style="rounded=0;whiteSpace=wrap;html=1;" vertex="1" parent="1">
          <mxGeometry x="110" y="190" width="80" height="30" as="geometry" />
        </mxCell>
        <mxCell id="8ZU-AFX73NO8LHNlwmNf-25" style="edgeStyle=orthogonalEdgeStyle;rounded=0;orthogonalLoop=1;jettySize=auto;html=1;exitX=0.5;exitY=1;exitDx=0;exitDy=0;entryX=0.5;entryY=0;entryDx=0;entryDy=0;" edge="1" parent="1" source="8ZU-AFX73NO8LHNlwmNf-9" target="8ZU-AFX73NO8LHNlwmNf-13">
          <mxGeometry relative="1" as="geometry" />
        </mxCell>
        <mxCell id="8ZU-AFX73NO8LHNlwmNf-9" value="cluster-api资源创建" style="rounded=0;whiteSpace=wrap;html=1;" vertex="1" parent="1">
          <mxGeometry x="110" y="250" width="80" height="30" as="geometry" />
        </mxCell>
        <mxCell id="8ZU-AFX73NO8LHNlwmNf-28" style="edgeStyle=orthogonalEdgeStyle;rounded=0;orthogonalLoop=1;jettySize=auto;html=1;exitX=0.5;exitY=1;exitDx=0;exitDy=0;entryX=0.5;entryY=0;entryDx=0;entryDy=0;" edge="1" parent="1" source="8ZU-AFX73NO8LHNlwmNf-11" target="8ZU-AFX73NO8LHNlwmNf-12">
          <mxGeometry relative="1" as="geometry" />
        </mxCell>
        <mxCell id="8ZU-AFX73NO8LHNlwmNf-30" value="是" style="edgeLabel;html=1;align=center;verticalAlign=middle;resizable=0;points=[];" vertex="1" connectable="0" parent="8ZU-AFX73NO8LHNlwmNf-28">
          <mxGeometry x="-0.2476" y="-1" relative="1" as="geometry">
            <mxPoint as="offset" />
          </mxGeometry>
        </mxCell>
        <mxCell id="8ZU-AFX73NO8LHNlwmNf-32" style="edgeStyle=orthogonalEdgeStyle;rounded=0;orthogonalLoop=1;jettySize=auto;html=1;exitX=1;exitY=0.5;exitDx=0;exitDy=0;" edge="1" parent="1" source="8ZU-AFX73NO8LHNlwmNf-11">
          <mxGeometry relative="1" as="geometry">
            <mxPoint x="240" y="510" as="targetPoint" />
          </mxGeometry>
        </mxCell>
        <mxCell id="8ZU-AFX73NO8LHNlwmNf-33" value="否" style="edgeLabel;html=1;align=center;verticalAlign=middle;resizable=0;points=[];" vertex="1" connectable="0" parent="8ZU-AFX73NO8LHNlwmNf-32">
          <mxGeometry x="-0.2445" y="-1" relative="1" as="geometry">
            <mxPoint as="offset" />
          </mxGeometry>
        </mxCell>
        <mxCell id="8ZU-AFX73NO8LHNlwmNf-11" value="是HA集群？" style="rhombus;whiteSpace=wrap;html=1;" vertex="1" parent="1">
          <mxGeometry x="110" y="490" width="80" height="40" as="geometry" />
        </mxCell>
        <mxCell id="8ZU-AFX73NO8LHNlwmNf-31" style="edgeStyle=orthogonalEdgeStyle;rounded=0;orthogonalLoop=1;jettySize=auto;html=1;entryX=0.5;entryY=0;entryDx=0;entryDy=0;" edge="1" parent="1" source="8ZU-AFX73NO8LHNlwmNf-12" target="8ZU-AFX73NO8LHNlwmNf-16">
          <mxGeometry relative="1" as="geometry">
            <mxPoint x="250" y="80" as="targetPoint" />
          </mxGeometry>
        </mxCell>
        <mxCell id="8ZU-AFX73NO8LHNlwmNf-12" value="配置负载均衡器" style="rounded=0;whiteSpace=wrap;html=1;" vertex="1" parent="1">
          <mxGeometry x="110" y="585" width="80" height="30" as="geometry" />
        </mxCell>
        <mxCell id="8ZU-AFX73NO8LHNlwmNf-26" style="edgeStyle=orthogonalEdgeStyle;rounded=0;orthogonalLoop=1;jettySize=auto;html=1;exitX=0.5;exitY=1;exitDx=0;exitDy=0;entryX=0.5;entryY=0;entryDx=0;entryDy=0;" edge="1" parent="1" source="8ZU-AFX73NO8LHNlwmNf-13" target="8ZU-AFX73NO8LHNlwmNf-15">
          <mxGeometry relative="1" as="geometry" />
        </mxCell>
        <mxCell id="8ZU-AFX73NO8LHNlwmNf-13" value="根据节点架构sftp推送对应架构bkeagent" style="rounded=0;whiteSpace=wrap;html=1;" vertex="1" parent="1">
          <mxGeometry x="82.5" y="320" width="135" height="30" as="geometry" />
        </mxCell>
        <mxCell id="8ZU-AFX73NO8LHNlwmNf-22" style="edgeStyle=orthogonalEdgeStyle;rounded=0;orthogonalLoop=1;jettySize=auto;html=1;exitX=0.5;exitY=1;exitDx=0;exitDy=0;entryX=0.5;entryY=0;entryDx=0;entryDy=0;" edge="1" parent="1" source="8ZU-AFX73NO8LHNlwmNf-14" target="8ZU-AFX73NO8LHNlwmNf-8">
          <mxGeometry relative="1" as="geometry" />
        </mxCell>
        <mxCell id="8ZU-AFX73NO8LHNlwmNf-14" value="设置bc默认值" style="rounded=0;whiteSpace=wrap;html=1;" vertex="1" parent="1">
          <mxGeometry x="110" y="130" width="80" height="30" as="geometry" />
        </mxCell>
        <mxCell id="8ZU-AFX73NO8LHNlwmNf-27" style="edgeStyle=orthogonalEdgeStyle;rounded=0;orthogonalLoop=1;jettySize=auto;html=1;exitX=0.5;exitY=1;exitDx=0;exitDy=0;entryX=0.5;entryY=0;entryDx=0;entryDy=0;" edge="1" parent="1" source="8ZU-AFX73NO8LHNlwmNf-15" target="8ZU-AFX73NO8LHNlwmNf-11">
          <mxGeometry relative="1" as="geometry" />
        </mxCell>
        <mxCell id="8ZU-AFX73NO8LHNlwmNf-15" value="节点环境初始化（配置机器、安装运行时等）" style="rounded=0;whiteSpace=wrap;html=1;" vertex="1" parent="1">
          <mxGeometry x="81.25" y="400" width="137.5" height="30" as="geometry" />
        </mxCell>
        <mxCell id="8ZU-AFX73NO8LHNlwmNf-37" value="" style="edgeStyle=orthogonalEdgeStyle;rounded=0;orthogonalLoop=1;jettySize=auto;html=1;" edge="1" parent="1" source="8ZU-AFX73NO8LHNlwmNf-16" target="8ZU-AFX73NO8LHNlwmNf-36">
          <mxGeometry relative="1" as="geometry" />
        </mxCell>
        <mxCell id="8ZU-AFX73NO8LHNlwmNf-16" value="init master节点" style="rounded=0;whiteSpace=wrap;html=1;" vertex="1" parent="1">
          <mxGeometry x="290" y="90" width="80" height="30" as="geometry" />
        </mxCell>
        <mxCell id="8ZU-AFX73NO8LHNlwmNf-48" value="" style="edgeStyle=orthogonalEdgeStyle;rounded=0;orthogonalLoop=1;jettySize=auto;html=1;" edge="1" parent="1" source="8ZU-AFX73NO8LHNlwmNf-17" target="8ZU-AFX73NO8LHNlwmNf-47">
          <mxGeometry relative="1" as="geometry" />
        </mxCell>
        <mxCell id="8ZU-AFX73NO8LHNlwmNf-17" value="worker节点并行加入集群" style="rounded=0;whiteSpace=wrap;html=1;" vertex="1" parent="1">
          <mxGeometry x="290" y="370" width="80" height="30" as="geometry" />
        </mxCell>
        <mxCell id="8ZU-AFX73NO8LHNlwmNf-53" value="" style="edgeStyle=orthogonalEdgeStyle;rounded=0;orthogonalLoop=1;jettySize=auto;html=1;" edge="1" parent="1" source="8ZU-AFX73NO8LHNlwmNf-18" target="8ZU-AFX73NO8LHNlwmNf-19">
          <mxGeometry relative="1" as="geometry" />
        </mxCell>
        <mxCell id="8ZU-AFX73NO8LHNlwmNf-18" value="addon安装" style="rounded=0;whiteSpace=wrap;html=1;" vertex="1" parent="1">
          <mxGeometry x="290" y="520" width="80" height="30" as="geometry" />
        </mxCell>
        <mxCell id="8ZU-AFX73NO8LHNlwmNf-19" value="集群健康检查" style="rounded=0;whiteSpace=wrap;html=1;" vertex="1" parent="1">
          <mxGeometry x="290" y="585" width="80" height="30" as="geometry" />
        </mxCell>
        <mxCell id="8ZU-AFX73NO8LHNlwmNf-39" value="" style="edgeStyle=orthogonalEdgeStyle;rounded=0;orthogonalLoop=1;jettySize=auto;html=1;" edge="1" parent="1" source="8ZU-AFX73NO8LHNlwmNf-36" target="8ZU-AFX73NO8LHNlwmNf-38">
          <mxGeometry relative="1" as="geometry">
            <Array as="points">
              <mxPoint x="330" y="210" />
              <mxPoint x="330" y="210" />
            </Array>
          </mxGeometry>
        </mxCell>
        <mxCell id="8ZU-AFX73NO8LHNlwmNf-40" value="是" style="edgeLabel;html=1;align=center;verticalAlign=middle;resizable=0;points=[];" vertex="1" connectable="0" parent="8ZU-AFX73NO8LHNlwmNf-39">
          <mxGeometry x="-0.1486" relative="1" as="geometry">
            <mxPoint as="offset" />
          </mxGeometry>
        </mxCell>
        <mxCell id="8ZU-AFX73NO8LHNlwmNf-45" style="edgeStyle=orthogonalEdgeStyle;rounded=0;orthogonalLoop=1;jettySize=auto;html=1;exitX=1;exitY=0.5;exitDx=0;exitDy=0;" edge="1" parent="1" source="8ZU-AFX73NO8LHNlwmNf-36">
          <mxGeometry relative="1" as="geometry">
            <mxPoint x="330" y="270" as="targetPoint" />
            <Array as="points">
              <mxPoint x="410" y="160" />
              <mxPoint x="410" y="270" />
            </Array>
          </mxGeometry>
        </mxCell>
        <mxCell id="8ZU-AFX73NO8LHNlwmNf-46" value="否" style="edgeLabel;html=1;align=center;verticalAlign=middle;resizable=0;points=[];" vertex="1" connectable="0" parent="8ZU-AFX73NO8LHNlwmNf-45">
          <mxGeometry x="-0.9194" relative="1" as="geometry">
            <mxPoint as="offset" />
          </mxGeometry>
        </mxCell>
        <mxCell id="8ZU-AFX73NO8LHNlwmNf-36" value="多master？" style="rhombus;whiteSpace=wrap;html=1;" vertex="1" parent="1">
          <mxGeometry x="290" y="140" width="80" height="40" as="geometry" />
        </mxCell>
        <mxCell id="8ZU-AFX73NO8LHNlwmNf-44" value="" style="edgeStyle=orthogonalEdgeStyle;rounded=0;orthogonalLoop=1;jettySize=auto;html=1;" edge="1" parent="1" source="8ZU-AFX73NO8LHNlwmNf-38" target="8ZU-AFX73NO8LHNlwmNf-41">
          <mxGeometry relative="1" as="geometry" />
        </mxCell>
        <mxCell id="8ZU-AFX73NO8LHNlwmNf-38" value="master节点串行加入集群" style="rounded=0;whiteSpace=wrap;html=1;" vertex="1" parent="1">
          <mxGeometry x="290" y="220" width="80" height="30" as="geometry" />
        </mxCell>
        <mxCell id="8ZU-AFX73NO8LHNlwmNf-42" value="" style="edgeStyle=orthogonalEdgeStyle;rounded=0;orthogonalLoop=1;jettySize=auto;html=1;" edge="1" parent="1" source="8ZU-AFX73NO8LHNlwmNf-41" target="8ZU-AFX73NO8LHNlwmNf-17">
          <mxGeometry relative="1" as="geometry" />
        </mxCell>
        <mxCell id="8ZU-AFX73NO8LHNlwmNf-43" value="是" style="edgeLabel;html=1;align=center;verticalAlign=middle;resizable=0;points=[];" vertex="1" connectable="0" parent="8ZU-AFX73NO8LHNlwmNf-42">
          <mxGeometry x="-0.6929" y="1" relative="1" as="geometry">
            <mxPoint x="-1" y="9" as="offset" />
          </mxGeometry>
        </mxCell>
        <mxCell id="8ZU-AFX73NO8LHNlwmNf-49" style="edgeStyle=orthogonalEdgeStyle;rounded=0;orthogonalLoop=1;jettySize=auto;html=1;exitX=1;exitY=0.5;exitDx=0;exitDy=0;" edge="1" parent="1" source="8ZU-AFX73NO8LHNlwmNf-41">
          <mxGeometry relative="1" as="geometry">
            <mxPoint x="330" y="420" as="targetPoint" />
            <Array as="points">
              <mxPoint x="410" y="315" />
              <mxPoint x="410" y="420" />
            </Array>
          </mxGeometry>
        </mxCell>
        <mxCell id="8ZU-AFX73NO8LHNlwmNf-50" value="否" style="edgeLabel;html=1;align=center;verticalAlign=middle;resizable=0;points=[];" vertex="1" connectable="0" parent="8ZU-AFX73NO8LHNlwmNf-49">
          <mxGeometry x="-0.9299" y="2" relative="1" as="geometry">
            <mxPoint as="offset" />
          </mxGeometry>
        </mxCell>
        <mxCell id="8ZU-AFX73NO8LHNlwmNf-41" value="有worker节点？" style="rhombus;whiteSpace=wrap;html=1;" vertex="1" parent="1">
          <mxGeometry x="285" y="290" width="90" height="50" as="geometry" />
        </mxCell>
        <mxCell id="8ZU-AFX73NO8LHNlwmNf-52" value="" style="edgeStyle=orthogonalEdgeStyle;rounded=0;orthogonalLoop=1;jettySize=auto;html=1;" edge="1" parent="1" source="8ZU-AFX73NO8LHNlwmNf-47" target="8ZU-AFX73NO8LHNlwmNf-18">
          <mxGeometry relative="1" as="geometry" />
        </mxCell>
        <mxCell id="8ZU-AFX73NO8LHNlwmNf-55" value="是" style="edgeLabel;html=1;align=center;verticalAlign=middle;resizable=0;points=[];" vertex="1" connectable="0" parent="8ZU-AFX73NO8LHNlwmNf-52">
          <mxGeometry x="0.2896" y="1" relative="1" as="geometry">
            <mxPoint as="offset" />
          </mxGeometry>
        </mxCell>
        <mxCell id="8ZU-AFX73NO8LHNlwmNf-54" style="edgeStyle=orthogonalEdgeStyle;rounded=0;orthogonalLoop=1;jettySize=auto;html=1;exitX=1;exitY=0.5;exitDx=0;exitDy=0;" edge="1" parent="1" source="8ZU-AFX73NO8LHNlwmNf-47">
          <mxGeometry relative="1" as="geometry">
            <mxPoint x="330" y="570" as="targetPoint" />
            <Array as="points">
              <mxPoint x="410" y="465" />
              <mxPoint x="410" y="570" />
            </Array>
          </mxGeometry>
        </mxCell>
        <mxCell id="8ZU-AFX73NO8LHNlwmNf-56" value="否" style="edgeLabel;html=1;align=center;verticalAlign=middle;resizable=0;points=[];" vertex="1" connectable="0" parent="8ZU-AFX73NO8LHNlwmNf-54">
          <mxGeometry x="-0.8876" y="2" relative="1" as="geometry">
            <mxPoint as="offset" />
          </mxGeometry>
        </mxCell>
        <mxCell id="8ZU-AFX73NO8LHNlwmNf-47" value="需要安装addon？" style="rhombus;whiteSpace=wrap;html=1;" vertex="1" parent="1">
          <mxGeometry x="285" y="440" width="90" height="50" as="geometry" />
        </mxCell>
      </root>
    </mxGraphModel>
  </diagram>
</mxfile>
